<?xml version="1.0" encoding="UTF-8" standalone="no"?>
<svg width="35px" height="32px" viewBox="0 0 35 32" version="1.1" xmlns="http://www.w3.org/2000/svg" xmlns:xlink="http://www.w3.org/1999/xlink">
    <!-- Generator: Sketch 43.2 (39069) - http://www.bohemiancoding.com/sketch -->
    <title>icon/heart</title>
    <desc>Created with Sketch.</desc>
    <defs></defs>
    <g id="Symbols" stroke="none" stroke-width="1" fill="none" fill-rule="evenodd">
        <g id="component/horiz-divider" transform="translate(-623.000000, -1.000000)">
            <g id="icon/heart" transform="translate(623.000000, 1.000000)">
                <path d="M31.2084035,2.92425 C27.3094035,-0.97475 20.9654035,-0.97475 17.0664035,2.92425 C13.1674035,-0.97475 6.8224035,-0.97475 2.9234035,2.92425 C-0.736596501,6.58425 -0.959596501,12.39925 2.2524035,16.32325 L2.2164035,16.35925 L2.9234035,17.06625 L5.0454035,19.18725 L12.8234035,26.96625 L17.0664035,31.20825 L21.3084035,26.96625 L29.0874035,19.18725 L31.2084035,17.06625 L31.9154035,16.35925 L31.8794035,16.32325 C35.0914035,12.39925 34.8684035,6.58425 31.2084035,2.92425" id="Path" fill="#ED1416"></path>
                <path d="M24.8444035,14.94525 L17.0664035,22.72225 L9.2874035,14.94525 L7.1664035,12.82325 C5.6064035,11.26325 5.6064035,8.72625 7.1664035,7.16725 C8.7264035,5.60625 11.2634035,5.60625 12.8234035,7.16725 L17.0664035,11.40925 L21.3084035,7.16725 C22.8684035,5.60625 25.4054035,5.60625 26.9654035,7.16725 C28.5254035,8.72625 28.5254035,11.26325 26.9654035,12.82325 L24.8444035,14.94525 Z" id="Path" fill="#FFFFFF"></path>
            </g>
        </g>
    </g>
</svg>